<?xml version="1.0" standalone="no"?><!DOCTYPE svg PUBLIC "-//W3C//DTD SVG 1.1//EN" "http://www.w3.org/Graphics/SVG/1.1/DTD/svg11.dtd"><svg t="1576250357129" class="icon" viewBox="0 0 1024 1024" version="1.1" xmlns="http://www.w3.org/2000/svg" p-id="4747" xmlns:xlink="http://www.w3.org/1999/xlink" width="48" height="48"><defs><style type="text/css"></style></defs><path d="M921.6 182.53913l-124.66087-129.113043C770.226087 26.713043 716.8 0 676.730435 0H258.226087C222.608696 0 191.443478 35.617391 191.443478 75.686957v351.721739h57.878261V75.686957c0-8.904348 4.452174-13.356522 13.356522-13.356522H694.53913v231.513043h222.608696v658.921739c0 8.904348-4.452174 13.356522-13.356522 13.356522H258.226087c-8.904348 0-13.356522-8.904348-13.356522-13.356522V845.913043H191.443478v106.852174c0 35.617391 31.165217 71.234783 66.782609 71.234783h641.113043c40.069565 0 71.234783-31.165217 71.234783-71.234783v-623.304347c0-40.069565-22.26087-120.208696-48.973913-146.92174z m-173.634783 57.878261V93.495652c4.452174 4.452174 8.904348 4.452174 8.904348 8.904348l124.66087 124.66087 8.904348 8.904347-142.469566 4.452174z" fill="#ff4d4f" p-id="4748"></path><path d="M796.93913 440.765217H97.947826c-22.26087 0-40.069565 17.808696-40.069565 40.069566V756.869565c0 22.26087 17.808696 40.069565 40.069565 40.069565h698.991304c22.26087 0 40.069565-17.808696 40.069566-40.069565v-276.034782c0-22.26087-17.808696-40.069565-40.069566-40.069566zM325.008696 703.443478c-13.356522 13.356522-31.165217 17.808696-48.973913 17.808696-26.713043 0-44.521739-8.904348-62.330435-26.713044-13.356522-17.808696-22.26087-40.069565-22.26087-71.234782 0-17.808696 4.452174-35.617391 8.904348-53.426087 4.452174-13.356522 17.808696-26.713043 31.165217-35.617391 13.356522-8.904348 26.713043-13.356522 44.52174-13.356522 22.26087 0 35.617391 4.452174 48.973913 13.356522s22.26087 26.713043 26.713043 44.521739l-31.165217 4.452174c-4.452174-4.452174-8.904348-13.356522-17.808696-17.808696-8.904348-4.452174-17.808696-8.904348-26.713043-8.904348-17.808696 0-26.713043 4.452174-40.069566 17.808696-8.904348 8.904348-13.356522 26.713043-13.356521 48.973913 0 26.713043 4.452174 44.521739 13.356521 53.426087 8.904348 13.356522 22.26087 17.808696 35.617392 17.808695 13.356522 0 22.26087-4.452174 31.165217-13.356521 8.904348-8.904348 13.356522-17.808696 17.808696-35.617392l31.165217 4.452174c-4.452174 26.713043-13.356522 40.069565-26.713043 53.426087z m191.443478-8.904348c-4.452174 8.904348-13.356522 17.808696-26.713044 22.26087-13.356522 4.452174-26.713043 8.904348-40.069565 8.904348-22.26087 0-44.521739-4.452174-53.426087-13.356522-13.356522-8.904348-22.26087-26.713043-22.260869-44.521739l31.165217-4.452174c0 13.356522 4.452174 22.26087 13.356522 26.713044 8.904348 4.452174 17.808696 8.904348 31.165217 8.904347 13.356522 0 26.713043-4.452174 31.165218-8.904347 8.904348-4.452174 8.904348-13.356522 8.904347-22.26087s-4.452174-13.356522-8.904347-17.808696c-4.452174-4.452174-13.356522-4.452174-31.165218-8.904348-22.26087-4.452174-40.069565-8.904348-48.973913-13.356521-8.904348-4.452174-17.808696-8.904348-22.260869-17.808696-4.452174-8.904348-8.904348-17.808696-8.904348-26.713043 0-8.904348 0-17.808696 4.452174-22.26087 4.452174-8.904348 8.904348-13.356522 13.356521-17.808696 4.452174-4.452174 13.356522-4.452174 17.808696-8.904347 8.904348-4.452174 17.808696-4.452174 26.713044-4.452174 13.356522 0 26.713043 0 40.069565 4.452174 8.904348 4.452174 17.808696 8.904348 22.260869 17.808695 4.452174 8.904348 8.904348 17.808696 8.904348 26.713044l-13.356522 4.452174c0-8.904348-4.452174-17.808696-13.356521-22.26087-8.904348-4.452174-17.808696-8.904348-26.713044-8.904348-13.356522 0-26.713043 4.452174-31.165217 8.904348-4.452174 4.452174-8.904348 8.904348-8.904348 17.808696 0 4.452174 0 8.904348 4.452174 8.904348 4.452174 4.452174 4.452174 4.452174 13.356522 8.904347 4.452174 0 13.356522 4.452174 26.713043 8.904348 22.26087 4.452174 35.617391 8.904348 44.521739 13.356522 8.904348 4.452174 17.808696 8.904348 22.26087 17.808696 4.452174 8.904348 8.904348 17.808696 8.904348 26.713043-4.452174 8.904348-8.904348 22.26087-13.356522 31.165217z m186.991304 0c-4.452174 8.904348-13.356522 17.808696-26.713043 22.26087-13.356522 4.452174-26.713043 8.904348-40.069565 8.904348-22.26087 0-44.521739-4.452174-53.426087-13.356522-13.356522-8.904348-22.26087-26.713043-22.26087-44.521739l31.165217-4.452174c0 13.356522 4.452174 22.26087 13.356522 26.713044 8.904348 4.452174 17.808696 8.904348 31.165218 8.904347 13.356522 0 26.713043-4.452174 31.165217-8.904347 8.904348-4.452174 8.904348-13.356522 8.904348-22.26087s-4.452174-13.356522-8.904348-17.808696c-4.452174-4.452174-13.356522-4.452174-31.165217-8.904348-22.26087-4.452174-40.069565-8.904348-48.973913-13.356521-8.904348-4.452174-17.808696-8.904348-22.26087-17.808696-4.452174-8.904348-8.904348-17.808696-8.904348-26.713043 0-8.904348 0-17.808696 4.452174-22.26087s8.904348-13.356522 13.356522-17.808696c4.452174-4.452174 13.356522-4.452174 17.808695-8.904347 8.904348-4.452174 17.808696-4.452174 26.713044-4.452174 13.356522 0 26.713043 0 40.069565 4.452174 8.904348 4.452174 17.808696 8.904348 22.26087 17.808695 4.452174 8.904348 8.904348 17.808696 8.904348 26.713044l-31.165218 4.452174c0-8.904348-4.452174-17.808696-13.356522-22.26087-4.452174-4.452174-17.808696-8.904348-26.713043-8.904348-13.356522 0-26.713043 4.452174-31.165217 8.904348-4.452174 4.452174-8.904348 8.904348-8.904348 17.808696 0 4.452174 0 8.904348 4.452174 8.904348 4.452174 4.452174 4.452174 4.452174 13.356521 8.904347 4.452174 0 13.356522 4.452174 26.713044 8.904348 22.26087 4.452174 35.617391 8.904348 44.521739 13.356522 8.904348 4.452174 17.808696 8.904348 22.26087 17.808696 4.452174 8.904348 8.904348 17.808696 8.904347 26.713043 13.356522 8.904348 8.904348 22.26087 4.452174 31.165217z" fill="#ff4d4f" p-id="4749"></path></svg>